<svg id="logo" xmlns="http://www.w3.org/2000/svg" width="424" height="105" viewBox="0 0 424 105">
  <g id="사각형_5" data-name="사각형 5" fill="#f5f5f5" stroke="#fff" stroke-width="1">
    <rect width="424" height="105" rx="52.5" stroke="none"/>
    <rect x="0.5" y="0.5" width="423" height="104" rx="52" fill="none"/>
  </g>
  <text id="일리코_ILiCo" data-name="일리코 ILiCo" transform="translate(44.803 64.789)" fill="#141e70" font-size="42" font-family="TTOmniGothicH, '\32 10 OmniGothic \30 50'"><tspan x="0" y="0">일리코 </tspan><tspan y="0" fill="#f6c94f">ILiCo</tspan></text>
  <g id="그룹_13" data-name="그룹 13" transform="translate(335.334 22.04)">
    <g id="대지_1" data-name="대지 1" transform="translate(0 0)">
      <ellipse id="타원_3" data-name="타원 3" cx="30.106" cy="30.46" rx="30.106" ry="30.46" transform="translate(0 0)" fill="#0d0e82" stroke="#7e8ca7" stroke-miterlimit="10" stroke-width="2.5"/>
      <g id="b" transform="translate(4.398 0.529)">
        <g id="그룹_11" data-name="그룹 11">
          <path id="패스_2" data-name="패스 2" d="M327.36,55.718c-.063-39.909-13.747-39.908-13.81,0C313.613,95.626,327.3,95.626,327.36,55.718Z" transform="translate(-294.576 -25.786)" fill="#fff" stroke="#7e8ca7" stroke-width="2.5"/>
          <path id="패스_3" data-name="패스 3" d="M104.46,219.931c34.129-20.01,27.287-32-6.905-12.1C63.426,227.839,70.269,239.83,104.46,219.931Z" transform="translate(-75.13 -183.949)" fill="#fff" stroke="#7e8ca7" stroke-width="2.5"/>
          <path id="패스_4" data-name="패스 4" d="M104.464,207.833c-34.192-19.9-41.033-7.909-6.9,12.1,34.191,19.9,41.033,7.908,6.9-12.1Z" transform="translate(-75.133 -183.951)" fill="#fff" stroke="#7e8ca7" stroke-width="2.5"/>
        </g>
      </g>
      <g id="c" transform="translate(4.398 0.529)">
        <g id="그룹_12" data-name="그룹 12">
          <path id="패스_5" data-name="패스 5" d="M327.36,55.718c-.063-39.909-13.747-39.908-13.81,0C313.613,95.626,327.3,95.626,327.36,55.718Z" transform="translate(-294.576 -25.786)" fill="none" stroke="#7e8ca7" stroke-miterlimit="10" stroke-width="2.5"/>
          <path id="패스_6" data-name="패스 6" d="M104.46,219.931c34.129-20.01,27.287-32-6.905-12.1C63.426,227.839,70.269,239.83,104.46,219.931Z" transform="translate(-75.13 -183.949)" fill="none" stroke="#7e8ca7" stroke-miterlimit="10" stroke-width="2.5"/>
          <path id="패스_7" data-name="패스 7" d="M104.464,207.833c-34.192-19.9-41.033-7.909-6.9,12.1,34.191,19.9,41.033,7.908,6.9-12.1Z" transform="translate(-75.133 -183.951)" fill="none" stroke="#7e8ca7" stroke-miterlimit="10" stroke-width="2.5"/>
        </g>
      </g>
      <g id="d" transform="translate(28.371 28.592)">
        <ellipse id="타원_4" data-name="타원 4" cx="1.976" cy="1.999" rx="1.976" ry="1.999" transform="translate(0 0)" fill="#7e8ca7" stroke="#7e8ca7" stroke-width="2.5"/>
      </g>
    </g>
  </g>
</svg>
